Coordinates
version=1
nRows=11
nColumns=40
inDegrees=yes

Units are S.I. units (second, meters, Newtons, ...)
Angles are in degrees.

endheader
time	pelvis_tilt	pelvis_list	pelvis_rotation	pelvis_tx	pelvis_ty	pelvis_tz	hip_flexion_r	hip_adduction_r	hip_rotation_r	knee_angle_r	knee_angle_r_beta	ankle_angle_r	subtalar_angle_r	mtp_angle_r	hip_flexion_l	hip_adduction_l	hip_rotation_l	knee_angle_l	knee_angle_l_beta	ankle_angle_l	subtalar_angle_l	mtp_angle_l	lumbar_extension	lumbar_bending	lumbar_rotation	arm_flex_r	arm_add_r	arm_rot_r	elbow_flex_r	pro_sup_r	wrist_flex_r	wrist_dev_r	arm_flex_l	arm_add_l	arm_rot_l	elbow_flex_l	pro_sup_l	wrist_flex_l	wrist_dev_l
     52.35442857	     -4.96895043	     -5.06010907	      3.16889359	      0.98423872	      0.93126123	      0.46988682	      9.91052045	      4.50120474	    -16.02673132	     11.57470733	     11.57470733	      8.88183902	      0.42696105	     -6.30787422	     36.67957830	     -8.51067724	      2.49429850	     35.89829998	     35.89829998	     11.25897274	    -17.42231445	     15.23946017	    -11.41063404	      6.31479326	      3.52985819	     30.33211952	    -16.08468062	     -3.74831962	     59.95086655	     45.38096986	      0.00000000	      0.00000000	      2.45977326	     -6.92199218	      1.24055376	     27.69074658	     46.11157195	      0.00000000	      0.00000000
     52.36635714	     -5.10387668	     -5.08197918	      3.32821277	      0.98350316	      0.93089210	      0.46972119	      9.48693258	      4.54656136	    -16.14259116	     11.36652564	     11.36652564	      9.20961364	      0.65023093	     -6.43919658	     36.71571707	     -8.14419592	      2.71955991	     32.55725587	     32.55725587	     10.96104686	    -15.98650838	     14.48038232	    -11.37252192	      6.36131175	      3.22048349	     32.16929695	    -15.79019500	     -3.60300297	     62.40569484	     45.30060646	      0.00000000	      0.00000000	      1.37413801	     -6.95566581	      1.26659974	     26.76820250	     46.08696735	      0.00000000	      0.00000000
     52.37828571	     -5.32462118	     -5.06861442	      3.43153059	      0.98282673	      0.93040748	      0.46953832	      9.17402687	      4.55955951	    -16.19427401	     11.19332636	     11.19332636	      9.53417387	      0.73202186	     -6.55253144	     36.79952354	     -7.82753145	      2.72806393	     29.44395678	     29.44395678	     10.86981757	    -14.19142447	     14.28171078	    -11.15778038	      6.30045371	      3.30258556	     33.86573564	    -15.77334904	     -3.56622824	     64.09957203	     45.25015886	      0.00000000	      0.00000000	      0.43958706	     -6.93635748	      1.28053209	     26.19296751	     46.06812864	      0.00000000	      0.00000000
     52.39021429	     -5.37552945	     -5.20115125	      3.57388034	      0.98248916	      0.92998906	      0.46932196	      8.58837164	      4.74172441	    -16.45994169	     10.88946206	     10.88946206	      9.87956597	      1.16045711	     -6.58597165	     36.78715834	     -7.78910957	      2.36855846	     26.74673279	     26.74673279	     10.31554802	    -11.98371546	     12.38869403	    -11.22515346	      6.48868257	      3.07734966	     35.03859058	    -15.68562852	     -2.97822832	     68.31857040	     45.09753693	      0.00000000	      0.00000000	     -0.60996097	     -6.96941679	      1.23296531	     25.38629989	     46.05489749	      0.00000000	      0.00000000
     52.40214286	     -5.48828709	     -5.20759976	      3.68527751	      0.98223014	      0.92956075	      0.46897108	      8.10003243	      4.78400380	    -16.48974323	     10.66885947	     10.66885947	     10.28045846	      1.32071812	     -6.54499244	     36.73373195	     -7.58048724	      1.99849538	     24.24752203	     24.24752203	      9.79381705	    -10.21933590	     11.14626385	    -11.11956461	      6.49125303	      3.30960251	     36.00617693	    -15.93428350	     -2.82213901	     71.58115379	     45.00065376	      0.00000000	      0.00000000	     -1.38494578	     -6.95976549	      1.19530705	     24.89737779	     46.04211310	      0.00000000	      0.00000000
     52.41407143	     -5.56124597	     -5.15196591	      3.79204402	      0.98208411	      0.92924416	      0.46849375	      7.57400984	      4.75496383	    -16.48348513	     10.47446686	     10.47446686	     10.63612984	      1.39032420	     -6.55664037	     36.65227185	     -7.30495923	      1.56578924	     22.20057818	     22.20057818	      9.62303082	     -8.77986373	     11.10038170	    -11.04424979	      6.40819709	      3.18831995	     37.48244742	    -15.61620532	     -2.82621834	     73.54886468	     44.94716083	      0.00000000	      0.00000000	     -2.31960729	     -7.02465887	      1.20627772	     24.43063195	     46.02171593	      0.00000000	      0.00000000
     52.42600000	     -5.63598914	     -5.24285351	      3.92304895	      0.98215360	      0.92878610	      0.46795725	      6.99142003	      4.88489852	    -16.58874435	     10.18371184	     10.18371184	     11.01426379	      1.66922651	     -6.35592379	     36.69619088	     -7.21830946	      0.93366213	     20.72312951	     20.72312951	      9.37681710	     -7.37347345	     10.51936699	    -10.94878711	      6.52852977	      3.21494868	     38.40809879	    -15.58285605	     -2.68204380	     76.96589389	     44.85014278	      0.00000000	      0.00000000	     -3.21476073	     -7.03920171	      1.15137945	     24.32960081	     46.00794011	      0.00000000	      0.00000000
     52.43792857	     -5.68665001	     -5.20279264	      4.01227068	      0.98233951	      0.92844263	      0.46734196	      6.41157794	      4.87460210	    -16.57669973	      9.97504667	      9.97504667	     11.36431362	      1.74521213	     -6.30199643	     36.56157458	     -6.98637259	      0.33308732	     19.43789125	     19.43789125	      9.16873410	     -6.63166641	     10.59467861	    -10.84281037	      6.46909350	      3.07901223	     39.65976828	    -15.16800930	     -2.65098157	     78.88852292	     44.79719928	      0.00000000	      0.00000000	     -4.08452538	     -7.09648450	      1.15133367	     24.00469237	     45.99027149	      0.00000000	      0.00000000
     52.44985714	     -5.73540086	     -5.26360414	      4.12718848	      0.98277850	      0.92797177	      0.46658082	      5.75570201	      4.96946115	    -16.67329499	      9.65297857	      9.65297857	     11.74755131	      2.05785188	     -6.01415954	     36.53759537	     -6.87003193	     -0.29764285	     18.75069566	     18.75069566	      8.97538771	     -6.09278627	     10.29248075	    -10.73378188	      6.55958861	      3.02965833	     40.47067740	    -14.94992343	     -2.50815997	     82.13199811	     44.70505937	      0.00000000	      0.00000000	     -4.97566478	     -7.12455056	      1.07334300	     24.05774983	     45.98214499	      0.00000000	      0.00000000
     52.46178571	     -5.72514064	     -5.27032684	      4.18928358	      0.98339469	      0.92756531	      0.46576666	      5.08169897	      4.99531434	    -16.67772923	      9.44733982	      9.44733982	     12.12285625	      2.25337759	     -5.84224577	     36.27550625	     -6.72555276	     -0.90238229	     18.18675386	     18.18675386	      8.78325733	     -5.97209228	     10.23229742	    -10.62095260	      6.57973436	      2.95254563	     41.37492037	    -14.61324738	     -2.44383092	     84.41264457	     44.64220452	      0.00000000	      0.00000000	     -5.76826845	     -7.17058321	      1.03358518	     23.95472084	     45.97166449	      0.00000000	      0.00000000
     52.47371429	     -5.73926253	     -5.34031162	      4.24623706	      0.98421801	      0.92695122	      0.46490734	      4.39741475	      5.08734377	    -16.74353929	      9.19426721	      9.19426721	     12.54351809	      2.57619506	     -5.57813200	     36.04874260	     -6.65455895	     -1.38848836	     18.00108250	     18.00108250	      8.55995483	     -6.13643251	     10.05017790	    -10.48924023	      6.65540599	      2.93075917	     42.04321270	    -14.34929454	     -2.32676083	     87.10380931	     44.56653209	      0.00000000	      0.00000000	     -6.55799902	     -7.19830859	      0.95544411	     24.04198784	     45.96648547	      0.00000000	      0.00000000
